<svg id="Layer_1" data-name="Layer 1" xmlns="http://www.w3.org/2000/svg" xmlns:xlink="http://www.w3.org/1999/xlink" viewBox="0 0 100 100"><defs><style>.cls-1{fill:#231f20;}.cls-2{fill:url(#linear-gradient);}.cls-3{fill:url(#linear-gradient-2);}</style><linearGradient id="linear-gradient" x1="5" y1="38.01" x2="91.05" y2="38.01" gradientUnits="userSpaceOnUse"><stop offset="0.04" stop-color="#ba8a2c"/><stop offset="0.6" stop-color="#fcefa6"/><stop offset="1" stop-color="#caa142"/></linearGradient><linearGradient id="linear-gradient-2" x1="46.02" y1="63.91" x2="95" y2="63.91" xlink:href="#linear-gradient"/></defs><rect class="cls-1" width="100" height="100" rx="18.5"/><path class="cls-2" d="M90.13,15.93A11.75,11.75,0,0,0,87.55,12a11.57,11.57,0,0,0-3.91-2.51,14,14,0,0,0-4.89-1,16.61,16.61,0,0,0-4.92.59,11.67,11.67,0,0,0-4,2,9.52,9.52,0,0,0-2.65,3.23,9.68,9.68,0,0,0-1,4.39,8.48,8.48,0,0,0,1.15,4.64,8,8,0,0,0,3,2.84,9.3,9.3,0,0,0,7.7.52,6.9,6.9,0,0,0,3-2.21,6,6,0,0,0,1.2-3.76,6.13,6.13,0,0,1-2.93-.68,5.22,5.22,0,0,1-1.84-1.66,4.37,4.37,0,0,1-.74-2.15,3.8,3.8,0,0,1,.46-2.14,4.26,4.26,0,0,1,1.76-1.64A6.2,6.2,0,0,1,82,11.85a7.44,7.44,0,0,1,5.86,2.63,8.63,8.63,0,0,1,1.55,2.77,9.74,9.74,0,0,1,.52,3.29,8.67,8.67,0,0,1-.79,3.7,7.27,7.27,0,0,1-2.44,2.85,12.25,12.25,0,0,1-4.22,1.81,26.33,26.33,0,0,1-6.1.65,54,54,0,0,1-9.88-.89q-4.93-.91-9.87-2t-9.92-2a54,54,0,0,0-10.1-.83,40.86,40.86,0,0,0-14.75,3,34.68,34.68,0,0,0-6.57,3.49A26.19,26.19,0,0,0,9.92,35a21.56,21.56,0,0,0-3.59,6A19.79,19.79,0,0,0,5,48.26a16,16,0,0,0,1.66,7.35,18.52,18.52,0,0,0,4.61,5.83,23.85,23.85,0,0,0,6.92,4,31.77,31.77,0,0,0,8.55,1.94l12.7.07v-.88A12.09,12.09,0,0,1,38.06,63a25.66,25.66,0,0,1-.6-6.36l0-4,12.83.07,0,4A33.8,33.8,0,0,1,50,60.83l.54-.67A16.57,16.57,0,0,1,56,56a15.63,15.63,0,0,1,2.9-1.05L59,45.78a20,20,0,0,1,.66-5.8,4.49,4.49,0,0,1,1.43-2.4V36.7l-12.69-.07v.88a4.51,4.51,0,0,1,1.39,2.41,19.78,19.78,0,0,1,.61,5.81l0,5.87-12.82-.07,0-5.87a19.28,19.28,0,0,1,.67-5.8,4.54,4.54,0,0,1,1.41-2.4v-.88l-12.69-.07v.89a4.49,4.49,0,0,1,1.39,2.41,19.39,19.39,0,0,1,.6,5.8l-.06,10.94a27.09,27.09,0,0,1-.62,6.2,11.55,11.55,0,0,1-1.38,3.59A20.76,20.76,0,0,1,20.5,64.8a13.22,13.22,0,0,1-4.74-3.4,14.82,14.82,0,0,1-3-5.49,25.82,25.82,0,0,1-1-7.79,27.1,27.1,0,0,1,1.73-9.83A20.1,20.1,0,0,1,18.36,31a20.48,20.48,0,0,1,7.5-4.47,28.47,28.47,0,0,1,9.82-1.45,36.48,36.48,0,0,1,6.78.76A66.55,66.55,0,0,1,49,27.61c2.17.7,4.34,1.45,6.49,2.24s4.33,1.53,6.52,2.2,4.39,1.24,6.61,1.69a32.8,32.8,0,0,0,6.82.66,17.47,17.47,0,0,0,6.8-1.27,14.94,14.94,0,0,0,4.85-3.19,13.38,13.38,0,0,0,2.92-4.31,11.83,11.83,0,0,0,1-4.6A13,13,0,0,0,90.13,15.93Z"/><path class="cls-3" d="M92.19,69.89A23.58,23.58,0,0,1,89.48,66,52.68,52.68,0,0,1,87,61c-.77-1.79-1.44-3.48-2-5.08L77.72,36.37H70.07l-6.72,18a19,19,0,0,0-4.44.56A15.63,15.63,0,0,0,56,56a16.57,16.57,0,0,0-5.44,4.17l-.54.67a18.62,18.62,0,0,0-2.84,5.37A22.44,22.44,0,0,0,46,73.48a21.78,21.78,0,0,0,1,6.61,17.38,17.38,0,0,0,3,5.76,15.38,15.38,0,0,0,5.05,4.06,15.22,15.22,0,0,0,7,1.53,9.64,9.64,0,0,0,4.59-1,8.39,8.39,0,0,0,2.93-2.53,7.76,7.76,0,0,0,1.12-6.61,5.17,5.17,0,0,0-1.69-2.52,4.72,4.72,0,0,0-3.14-1,4.74,4.74,0,0,1-1.26,3.41A6.28,6.28,0,0,1,61.53,83a9.09,9.09,0,0,1-4.06,0,9.82,9.82,0,0,1-4.06-1.87,11.3,11.3,0,0,1-3.15-3.93A14.06,14.06,0,0,1,48.93,71a17,17,0,0,1,.3-3.47A14.33,14.33,0,0,1,50,64.9,14.72,14.72,0,0,1,53,60a13.79,13.79,0,0,1,4.61-3.2,11.36,11.36,0,0,1,1.27-.47,14.73,14.73,0,0,1,4.51-.68,15.07,15.07,0,0,1,6,1.1,13.06,13.06,0,0,1,4.19,2.76A11.59,11.59,0,0,1,77,67a7.26,7.26,0,0,1-.41,3.12,2.71,2.71,0,0,1-1.56,1.7v1H95v-1A5.17,5.17,0,0,1,92.19,69.89ZM70.67,56a17.6,17.6,0,0,0-5.76-1.54,34.83,34.83,0,0,1,1-3.33l3.34-9L74,54.59c.28.69.54,1.43.78,2.21s.47,1.57.68,2.37A16.92,16.92,0,0,0,70.67,56Z"/></svg>